<svg version="1" xmlns="http://www.w3.org/2000/svg" width="298.667" height="298.667" viewBox="0 0 224.000000 224.000000"><path d="M51.5 49.9c-8.6 2.2-15.6 7.6-19.1 14.7-1.4 2.9-1.9 5.8-1.8 11.4.1 6.9 1.1 10.3 12.9 43.5 6.9 19.8 13.7 37.9 15 40.1 7.1 12.2 21.6 17.6 36 13.5 4.9-1.5 13.5-8.6 16.4-13.6 1.1-2 1.1-2 2.3-.1 2.6 4.4 9.2 10.6 13.6 12.7 6.4 3.1 17.7 3.2 24.3.2 5.8-2.6 11.4-7.5 14.3-12.7 2.3-3.9 14.8-38.1 24.3-66.5 4-11.8 4.5-14.2 3.9-19-.9-7.5-3.5-12.9-8.6-17.4-5.8-5.3-10.2-7-18.5-7.1-5.8-.1-8 .4-12.8 2.7-5.9 2.9-12.2 9.7-13.3 14.4-.8 3.2-1.8 2.9-3.2-1-1.9-5.3-7.6-11.2-13.4-13.8-14.2-6.3-32.2.4-37 13.8-1.4 3.9-2.4 4.2-3.2 1-1.1-4.6-7.4-11.5-13-14.2-5.7-2.8-14.1-3.9-19.1-2.6zM64 66.5c1.6.8 3.5 2.5 4.1 3.7.7 1.3 4.5 13.3 8.5 26.7 4.1 13.4 7.6 24.6 7.8 24.8.4.5 3.3-8.5 12.3-37.6C101.6 68.2 104.1 65 112 65s10.4 3.2 15.3 19.1c9 29.1 11.9 38.1 12.3 37.6.2-.2 3.7-11.4 7.8-24.8 4-13.4 7.8-25.4 8.5-26.7 1.6-3 6.2-5.2 11.2-5.2 3.3 0 4.7.6 7.5 3.4s3.4 4.2 3.4 7.5c0 4.2-22.4 69.6-25.9 75.6-4 6.9-13.7 9.7-20.2 5.8-4-2.4-6.6-8.3-13.6-30.5-5-16.3-7.3-21.8-7.3-17.7 0 .6-3 10.3-6.6 21.6-8 24.7-9.7 27.4-18.5 28-9.7.7-13.5-3.2-19.3-20.2-1.9-5.5-7.3-20.9-12-34.3-8.7-24.5-10-30.8-7.3-34.2 3.8-4.9 11-6.4 16.7-3.5z"/></svg>